<?xml version="1.0" encoding="UTF-8"?>
<!-- Generator: Adobe Illustrator 21.1.0, SVG Export Plug-In . SVG Version: 6.00 Build 0)  -->
<svg version="1.1" id="Layer_1" xmlns="http://www.w3.org/2000/svg" xmlns:xlink="http://www.w3.org/1999/xlink" x="0px" y="0px" viewBox="0 0 742 165" style="enable-background:new 0 0 742 165;" xml:space="preserve">
<style type="text/css">
	.st0{fill:#F78F00;}
	.st1{fill:#2F2E2E;}
	.st2{fill:#2F2E2E;}
</style>
<g>
  <path class="st0" d="M107.1,52.7c0,29.8-21.5,52.7-47.6,52.7c-13.3,0-23.1-4.6-29.7-12.2v49.3H0V2.8h29.9v9.4   C36.4,4.6,46.2,0,59.5,0C85.6,0,107.1,23,107.1,52.7z M77.2,52.7c0-15-10-24.4-23.7-24.4c-13.7,0-23.7,9.4-23.7,24.4   s10,24.4,23.7,24.4C67.3,77.1,77.2,67.7,77.2,52.7z"></path>
  <path class="st0" d="M206.6,2.8l-34,96.9c-11.1,31.8-30.9,44.3-56.7,42.9v-28c13.3,0,19.7-3.2,24.3-13.8l-39-98.1H133l23.1,61.3   l18.7-61.3H206.6z"></path>
  <path class="st0" d="M303.2,2.8v99.9h-29.9v-36h-33.8v36h-29.9V2.8h29.9v36h33.8v-36H303.2z"></path>
  <path class="st0" d="M367.7,78.7c8.2,0,15.1-3.2,19.1-7.6l23.9,13.8c-9.8,13.6-24.5,20.6-43.4,20.6c-34,0-55.1-23-55.1-52.7   S333.7,0,365.1,0c29.1,0,50.6,22.6,50.6,52.7c0,4.2-0.4,8.2-1.2,12h-70.7C347.6,75.1,356.7,78.7,367.7,78.7z M386,42.4   c-3.2-11.6-12.1-15.8-21.1-15.8c-11.3,0-18.9,5.6-21.7,15.8H386z"></path>
  <path class="st0" d="M501.3,31.6h-29.7v71.1h-29.9V31.6h-30.1V2.8h89.6V31.6z"></path>
  <path class="st1" d="M568,102.7l-31.9-44.1v44.1h-29.9V2.8h29.9v43.7L566,2.8h34.8l-36.2,49.9l37.2,49.9H568z"></path>
  <path class="st1" d="M698.4,2.8v99.9h-29.1V52.7l-42.6,49.9h-21.9V2.8h29.1v49.9l42.6-49.9H698.4z"></path>
</g>
<g>
  <path class="st2" d="M742,91c0,4-1.2,7.1-3.7,9.3s-5.9,3.3-10.4,3.3c-4.6,0-8.2-1.1-10.7-3.3c-2.5-2.2-3.8-5.4-3.8-9.5   c0-1.3,0.1-2.7,0.4-4c0.3-1.3,0.6-2.4,1-3.1l3.5,1.3c-0.4,0.9-0.7,1.9-0.9,3c-0.2,1.1-0.4,2.1-0.4,2.9c0,5.6,3.6,8.4,10.7,8.4   c3.4,0,6-0.7,7.8-2.1c1.8-1.4,2.7-3.4,2.7-6.1c0-2.3-0.5-4.7-1.5-7.1h3.7C741.5,85.9,742,88.2,742,91z"></path>
  <path class="st2" d="M727.7,53.6c4.5,0,8,1.1,10.5,3.4c2.5,2.3,3.8,5.4,3.8,9.4c0,2.5-0.6,4.7-1.7,6.6c-1.2,1.9-2.8,3.4-5,4.4   c-2.2,1-4.7,1.6-7.6,1.6c-4.5,0-8-1.1-10.5-3.4c-2.5-2.3-3.8-5.4-3.8-9.4c0-3.9,1.3-6.9,3.8-9.2C719.8,54.7,723.3,53.6,727.7,53.6z    M727.7,74.7c3.5,0,6.2-0.7,8-2.1c1.8-1.4,2.8-3.5,2.8-6.2c0-2.7-0.9-4.8-2.8-6.2c-1.8-1.4-4.5-2.1-8.1-2.1c-3.5,0-6.2,0.7-8,2.1   c-1.8,1.4-2.7,3.5-2.7,6.3c0,2.7,0.9,4.8,2.7,6.2C721.5,74,724.1,74.7,727.7,74.7z"></path>
  <path class="st2" d="M741.5,11h-17.9c-2.2,0-3.8,0.5-4.9,1.4c-1.1,0.9-1.6,2.4-1.6,4.4c0,2.6,0.7,4.5,2.2,5.8   c1.5,1.2,3.8,1.9,6.9,1.9h15.4v4.2h-17.9c-2.2,0-3.8,0.5-4.9,1.4c-1.1,0.9-1.6,2.4-1.6,4.4c0,2.6,0.8,4.5,2.4,5.8   c1.6,1.2,4.1,1.8,7.7,1.8h14.5v4.2h-27.6v-3.4l3.8-0.7V42c-1.3-0.8-2.4-1.9-3.1-3.3c-0.8-1.4-1.1-3-1.1-4.8c0-4.3,1.6-7.1,4.7-8.5   v-0.2c-1.4-0.8-2.6-2-3.4-3.6c-0.8-1.6-1.3-3.3-1.3-5.3c0-3.1,0.8-5.5,2.4-7c1.6-1.6,4.2-2.3,7.7-2.3h18V11z"></path>
</g>
<g>
	<path class="st2" d="M196.8,162.4h-3.7v-8.6h-17.4v8.6h-3.6v-11.9h2c2-2.8,3.6-6,4.8-9.7c1.2-3.7,1.7-7.7,1.8-12h12.6v21.7h3.6   V162.4z M189.6,150.5v-18.7H184c-0.2,3.4-0.8,6.8-1.9,10.2c-1.1,3.5-2.5,6.3-4.1,8.5H189.6z"/>
  <path class="st2" d="M212.3,154.2c-3.7,0-6.6-1.1-8.7-3.4s-3.2-5.4-3.2-9.4c0-4,1-7.2,3-9.6c2-2.4,4.6-3.6,8-3.6   c3.1,0,5.6,1,7.4,3.1c1.8,2.1,2.7,4.8,2.7,8.2v2.4h-17.2c0.1,2.9,0.8,5.2,2.2,6.7c1.4,1.5,3.4,2.3,5.9,2.3c2.7,0,5.3-0.6,8-1.7v3.4   c-1.3,0.6-2.6,1-3.8,1.2C215.4,154.1,214,154.2,212.3,154.2z M211.3,131.5c-2,0-3.6,0.7-4.8,2c-1.2,1.3-1.9,3.1-2.1,5.4h13   c0-2.4-0.5-4.2-1.6-5.5C214.8,132.1,213.2,131.5,211.3,131.5z"></path>
  <path class="st2" d="M248.1,135.1c0,1.6-0.5,2.9-1.4,3.7c-0.9,0.8-2.2,1.4-3.9,1.7v0.2c2.1,0.3,3.7,0.9,4.6,1.9c1,1,1.5,2.3,1.5,4   c0,2.3-0.9,4.1-2.6,5.4c-1.7,1.3-4.2,1.9-7.5,1.9h-11v-25h10.9C245,128.8,248.1,130.9,248.1,135.1z M244.4,135.4   c0-1.2-0.5-2.1-1.4-2.6c-0.9-0.5-2.3-0.8-4.2-0.8h-7.1v7h6.4c2.3,0,4-0.3,4.9-0.9C243.9,137.7,244.4,136.7,244.4,135.4z    M245.1,146.3c0-1.4-0.5-2.3-1.5-3c-1-0.6-2.7-0.9-5.1-0.9h-6.8v8.2h6.9C242.9,150.6,245.1,149.2,245.1,146.3z"></path>
  <path class="st2" d="M250.4,128.8h4l5.5,14.2c1.2,3.3,1.9,5.6,2.2,7h0.2c0.2-0.8,0.6-2.1,1.2-4c0.6-1.9,2.7-7.6,6.2-17.3h4   l-10.7,28.5c-1.1,2.8-2.3,4.8-3.7,6c-1.4,1.2-3.2,1.8-5.2,1.8c-1.2,0-2.3-0.1-3.4-0.4v-3c0.8,0.2,1.8,0.3,2.8,0.3   c2.6,0,4.4-1.5,5.5-4.4l1.4-3.6L250.4,128.8z"></path>
  <path class="st2" d="M296.4,150.5h11v-21.7h3.8v25h-33.4v-25h3.8v21.7h11v-21.7h3.8V150.5z"></path>
  <path class="st2" d="M333.7,128.8h4.1l-10.7,12.1l11.6,12.9h-4.4L323,141.1v12.7h-3.8v-25h3.8v12.2L333.7,128.8z"></path>
  <path class="st2" d="M346.9,128.8v15.8l-0.2,4.1l-0.1,1.3l13.5-21.3h4.7v25h-3.5v-15.3l0.1-3l0.1-3l-13.5,21.2h-4.7v-25H346.9z"></path>
  <path class="st2" d="M396.5,154.2c-1.6,0-3.1-0.3-4.4-0.9c-1.3-0.6-2.5-1.5-3.4-2.8h-0.3c0.2,1.5,0.3,2.8,0.3,4.1V165h-3.8v-36.2   h3.1l0.5,3.4h0.2c1-1.4,2.1-2.4,3.4-3c1.3-0.6,2.8-0.9,4.4-0.9c3.3,0,5.9,1.1,7.6,3.4c1.8,2.3,2.7,5.4,2.7,9.5   c0,4.1-0.9,7.3-2.7,9.6C402.3,153.1,399.8,154.2,396.5,154.2z M396,131.6c-2.5,0-4.4,0.7-5.5,2.1c-1.1,1.4-1.7,3.7-1.7,6.7v0.8   c0,3.5,0.6,6,1.7,7.5c1.2,1.5,3,2.3,5.6,2.3c2.1,0,3.8-0.9,5.1-2.6c1.2-1.7,1.8-4.2,1.8-7.2c0-3.1-0.6-5.5-1.8-7.2   C399.9,132.4,398.2,131.6,396,131.6z"></path>
  <path class="st2" d="M409.5,128.8h4L419,143c1.2,3.3,1.9,5.6,2.2,7h0.2c0.2-0.8,0.6-2.1,1.2-4c0.6-1.9,2.7-7.6,6.2-17.3h4   l-10.7,28.5c-1.1,2.8-2.3,4.8-3.7,6c-1.4,1.2-3.2,1.8-5.2,1.8c-1.2,0-2.3-0.1-3.4-0.4v-3c0.8,0.2,1.8,0.3,2.8,0.3   c2.6,0,4.4-1.5,5.5-4.4l1.4-3.6L409.5,128.8z"></path>
  <path class="st2" d="M440.7,128.8v10.5h14v-10.5h3.8v25h-3.8v-11.3h-14v11.3h-3.8v-25H440.7z"></path>
  <path class="st2" d="M476.9,154.2c-3.7,0-6.6-1.1-8.7-3.4c-2.1-2.2-3.2-5.4-3.2-9.4c0-4,1-7.2,3-9.6c2-2.4,4.6-3.6,8-3.6   c3.1,0,5.6,1,7.4,3.1c1.8,2.1,2.7,4.8,2.7,8.2v2.4h-17.2c0.1,2.9,0.8,5.2,2.2,6.7c1.4,1.5,3.4,2.3,5.9,2.3c2.7,0,5.3-0.6,8-1.7v3.4   c-1.3,0.6-2.6,1-3.8,1.2C480,154.1,478.6,154.2,476.9,154.2z M475.9,131.5c-2,0-3.6,0.7-4.8,2c-1.2,1.3-1.9,3.1-2.1,5.4h13   c0-2.4-0.5-4.2-1.6-5.5C479.4,132.1,477.9,131.5,475.9,131.5z"></path>
  <path class="st2" d="M509.3,132h-8.1v21.7h-3.8V132h-8v-3.2h19.9V132z"></path>
  <path class="st2" d="M529.5,153.8l-0.8-3.6h-0.2c-1.2,1.6-2.5,2.6-3.7,3.2c-1.2,0.6-2.8,0.8-4.6,0.8c-2.5,0-4.4-0.6-5.8-1.9   c-1.4-1.3-2.1-3.1-2.1-5.4c0-5,4-7.7,12.1-7.9l4.2-0.1v-1.5c0-2-0.4-3.4-1.3-4.3c-0.8-0.9-2.2-1.4-4-1.4c-2.1,0-4.4,0.6-7,1.9   l-1.2-2.9c1.2-0.7,2.6-1.2,4-1.6c1.5-0.4,2.9-0.6,4.4-0.6c3,0,5.2,0.7,6.6,2c1.4,1.3,2.1,3.4,2.1,6.4v17.1H529.5z M521,151.1   c2.3,0,4.2-0.6,5.5-1.9c1.3-1.3,2-3.1,2-5.4v-2.3l-3.8,0.2c-3,0.1-5.2,0.6-6.5,1.4c-1.3,0.8-2,2.1-2,3.9c0,1.4,0.4,2.4,1.2,3.1   C518.4,150.8,519.5,151.1,521,151.1z"></path>
</g>
</svg>
