<svg id="Layer_1" xmlns="http://www.w3.org/2000/svg" viewBox="0 0 596.3 144">
  <style>.st0{fill-rule:evenodd;clip-rule:evenodd;fill:#a02239}</style>
  <path class="st0" d="M547.1 96.3c-4.6 13.2-23.7 35.9-39 29.8 13.2-15.2 16.2-33.4 14.9-39.7-2.3-10.4-27 5.6-27.1 5.6-3.8-10.3 21.1-22.2 31.7-18 7.9 3.2 6.9 20.8-1.1 35.3 13.6-8.3 19.4-29.7 19.4-29.7 8.3 1.7 33.1-8.9 33.1-34.2 0-18.7-15.5-33.8-37.3-33.8-21.6 0-37.6 15.8-46.9 33.9-.7 1.3-6.2-1.4-6.2-5.3 0-12.4 22.9-35.5 52.6-36.6 23.3-.8 55.1 9 55.1 46.8 0 28.4-28 48.9-49.2 45.9zM400.6 53.4c1-8.4 6.7-18.3 15.4-18.2 7.8.1 11 11.5 10.5 21.7 0 0 3.3-17.7 13.9-17.6 8.1.1 10.2 18.3 8.1 35.4 0 .2.1.9.7.1 4.1-5.7 9.9-23.1 9.9-26.9.4-9.8 4.7-14.5 9.1-14.4 4.4 0 6.1 4.3 5.2 5.8-1.3 2-2.3 8.3-2.1 12.1.8 12.9 22.8 44.1 9.4 53.9-10.2 7.5-26.2-4.9-31.1-14.4 0 0 .3 15.1-5 15.1-7.5 0-11-5.3-9.6-8.8 4.7-12 8-42.2 1-42.2-7.6-.1-11.3 37.6-9.6 48.7.2 1.7-.4 3.6-3.6 3.6-7.5 0-13.2-3.6-11.5-9.2 2-6.7 8.8-48.5 2.1-48.5-10 0-12.5 40.1-11.1 53.9 0 .7-.8 3.6-3.7 3.7-9.6.2-13.8-5.8-12.8-9 4.4-13.7 5.2-34.8 3.6-34.8-1.5 7.5-9.4 41.6-22.6 41.4-7.7-.1-11.6-8.6-13.1-14.6-.9 2.9-6.2 15-13.7 14.9-9.1-.1-11-11.3-11-11.3-1.9 2.9-9.5 16.4-20.9 16.3-21.8-.2-25.9-31.8-25.7-45C282.8 24.5 303.1.6 320.2.7c9.3.1 15.1 7.9 13.6 20.1-1.1 8.7-12.3 23.1-20.5 21.7-1.6-.3-1.5-1-.7-2.4 7.5-10.1 11.9-28.2 6.6-28.2-4.5 0-21.5 17.9-21.9 55.7-.1 7.9 1.6 31.7 10.5 31.8C320.2 99.5 328 75 328 75c9.5-35.9 28.3-41.9 39.2-35.2 2.2 1.3 1.9 4.6 1.9 4.6 2 1.1 3.5 2.7 3.7 5.1-6.9 11.1-9.6 36.4-5.1 37.2 6.1 1.1 15.7-26.1 15.9-46.6 0-3.1 5-5 7.4-5 7.8 0 9.7 8.8 9.6 18.3zm-51.1 23.9c4.4-8.3 8-19.2 9.3-25.9-9.6-3.8-20.7 23.6-19.5 33.3.3 3.3 4 4.2 10.2-7.4zM464 60.5c-.5 1-7.6 18.3-8.5 20.8-.9 2.4 9 13.8 14.5 9.6 6.5-5-5.9-30.5-6-30.4zM132.2 55.4s4.3-13.6 13.9-13.6c19.4 0 14.2 45 16.3 45 2.4 0 2.4-5 2.7-6.5 1.6-17.1 9.1-38.1 20.6-40.4 2.3-.4 5.6 0 6.7.3 1.1.2 1.9.3 2.1-1.2.2-1.4 1.9-2.4 3.5-2.5 10.7 0 16.9 26.4 17.5 28.6l.5 2c3.4-2 8.5-3.5 8.5-3.5.6-2.2 6.9-26.4 23.5-26.4 3.1 0 7.1 1.4 7.1 1.4.8.2 1.4.1 1.5-.8 1-2.5 8.4-4.3 14.6-.7 1.9 1.4-.7 3.4-1.5 5.3-8.6 22.1-8.9 55.4-3.8 61.4 1.8 2.1 1.3 5.3-2.4 5.3-12 0-14-22.7-14-27.2 0 0-6.4 22.8-15.4 22.8-10.5 0-10.8-25.7-10.4-30.8-1.3.4-4 2-5.1 3 0 0 0 .2 0 0 1 4.8 7.4 35.8 2.8 50-2.6 8-7 17.2-17.2 17.2-10.1 0-19-9.3-19-22.8 0-20.6 17.1-41.8 21.3-45.9.5-.5.5-1.5.3-2.2-1.1-7.3-4.5-16.3-4.8-17-.4.9-14.5 47.6-24 47.6-6.2 0-10-6.3-10.4-8.9 0 0-3.9 11.1-10.6 11.1-7.8 0-7.8-8-8-9.9.4-6.5 5.2-40.5-4-40.5-9.3 0-12.2 20.5-14.8 50.4-.1 1-2.1 2.2-3.1 2.3-7.1.9-11.3-3.8-11.8-4.8 4.2-21.9 7.4-50.3-.8-61.4-.2-.5 1.9-4.5 6.3-4.5 8.8-.1 11.7 13.4 11.4 17.8 0 0-.1-.2 0 0zM210.3 88c-1.2 1.6-11.9 18.7-11.2 36 .1 2.2 1.2 7.1 4.5 7.1s6.7-4.1 8-12.4c2-12.6-.8-28.5-1.3-30.7zm-33.7-.4c5.9 0 15-33.9 15.4-35.9.2-1.1-.3-1.5-.9-1.5-10.8-.1-19.5 37.4-14.5 37.4zm58.4-3.7c7.7 2 16-22.4 18-34.5-16.3-1.2-23.3 33.1-18 34.5z"></path>
  <path class="st0" d="M83.5 50.2s4.7-13.9 12.8-13.9c7.7 0 11.2 8.9 11.2 8.9 1.2 1.5 9.1 10.6 7.2 29.2-1.5 15.1-8.5 34.8-20.9 34.8-11.6 0-17.5-15.7-16.4-32.9-1.2-.3-2 .5-2.4 1.4-9.6 17.6-30.9 38.8-42.5 38.8-6.2 0-8.5-11.3-8.5-12.2 0-7 35.1-32 42.6-35.5 0 0 6.1-9.2 6.1-16.8 0-6.6-3.3-8.4-5.3-8.4-9.8 0-24.5 14-31.9 28.8-.8 1.7-2.3 2.2-4.1 2.2-6.5 0-10.5-8.9-9.5-10.1 2-2.3 4.5-4.4 6.1-7C41.5 34.2 42.5 9.9 37.6 9.9c-7.7 0-22.3 25.1-22.3 65.5 0 18.8 4.2 29.6 7 32.3.9.9 0 3.9-3.4 5-6.6 2.2-17.3-5-18.7-24.3C-3 44.1 21.3-3.5 42.9.2c4.7.8 12.1 10.3 4.8 37.9 0 0 4.2-3.8 10.7-5.5 14.5-3.6 25.5 4.9 25.1 17.6zm12 8.6c6 0 6.6 8.2 5.7 8.2-5 0-8.6 1.7-9.3 2.5-4 4.3-4.4 24.3-1.1 25.2 5.6 1.5 11-13.1 12.8-21.7 2.3-11.4-.2-20.3-2.5-20.3-3.3 0-5.5 5.7-5.6 6.1zM519.4 45.8c-2.2-1.8-3.7-11.8-.6-15.5.6-.2 37.4 1.6 41 2-.7 2.8-2 4.5-4.5 5.8-5.2 2.6-34.6 7.1-35.9 7.7zM525.8 62.7c-1.8-1.5-3.1-9.9-.5-13 .5-.1 31.4 1.3 34.4 1.7-.6 2.3-1.7 3.8-3.7 4.8-4.4 2.2-29.1 6-30.2 6.5z"></path>
</svg>
